<svg width="218" height="218" fill="none" xmlns="http://www.w3.org/2000/svg"><g filter="url(#a)"><path d="M23 86h172v86H23V86z" fill="#EDEDED"/></g><path d="M23 172h172v9.5a9.93 9.93 0 0 1-.688 3.636 9.535 9.535 0 0 1-1.963 3.082 9.022 9.022 0 0 1-2.937 2.06 8.692 8.692 0 0 1-3.465.722H32.053a8.691 8.691 0 0 1-3.465-.722 9.035 9.035 0 0 1-2.937-2.06 9.534 9.534 0 0 1-1.963-3.082A9.908 9.908 0 0 1 23 181.5V172z" fill="#CACACA"/><path d="M123 113a2 2 0 0 1 2-2h46a2 2 0 0 1 2 2v78h-50v-78z" fill="#656565"/><path d="M161.864 142c-1.718 0-2.864 1.146-2.864 2.864v11.456c0 1.718 1.146 2.864 2.864 2.864s2.864-1.146 2.864-2.864v-11.456c0-1.718-1.146-2.864-2.864-2.864z" fill="#CACACA"/><path d="M105 111H40a2 2 0 0 0-2 2v46a2 2 0 0 0 2 2h65a2 2 0 0 0 2-2v-46a2 2 0 0 0-2-2z" fill="#656565"/><path d="M103 114H42a1 1 0 0 0-1 1v42a1 1 0 0 0 1 1h61a1 1 0 0 0 1-1v-42a1 1 0 0 0-1-1z" fill="#FF5E3E"/><path d="M190.715 72.654H27.245L13.623 86.276v4.54a9.077 9.077 0 0 0 9.081 9.083h172.552a9.08 9.08 0 0 0 9.082-9.082v-4.54l-13.623-13.623z" fill="#D52E0C"/><path d="M204.338 86.276H13.623l8.31-37.326a4.521 4.521 0 0 1 4.404-3.542h165.287a4.523 4.523 0 0 1 4.404 3.542l8.31 37.326z" fill="#FF5634"/><path d="M95 158H50c.167-1.475.848-2.82 1.899-3.749 1.05-.929 2.387-1.368 3.726-1.224h33.75c1.339-.144 2.676.295 3.726 1.224 1.05.929 1.732 2.274 1.899 3.749z" fill="#343434"/><path d="M108.98 76.82c19.004 0 34.41-15.406 34.41-34.41C143.39 23.406 127.984 8 108.98 8 89.976 8 74.57 23.406 74.57 42.41c0 19.004 15.406 34.41 34.41 34.41z" fill="#FDB52A"/><path opacity=".9" fill-rule="evenodd" clip-rule="evenodd" d="M104.065 25.205a2.459 2.459 0 0 0-4.916 0 2.458 2.458 0 0 0-4.916 0v9.831a7.374 7.374 0 0 0 4.916 6.952v17.627a2.458 2.458 0 0 0 4.916 0V41.988a7.376 7.376 0 0 0 4.915-6.952v-9.831a2.458 2.458 0 1 0-4.915 0zm14.747 34.41a2.458 2.458 0 0 1-4.916 0V22.747c9.831 2.458 12.289 19.663 12.289 24.578h-7.373v12.29z" fill="#fff"/><path d="M75 114h-5v13h5v-13z" fill="#343434"/><path d="M72.653 140.766a6.81 6.81 0 1 0 0-13.622 6.81 6.81 0 1 0 0 13.622z" fill="url(#b)"/><path d="M72.653 122.603a13.621 13.621 0 0 0-13.622 13.622h27.245a13.62 13.62 0 0 0-13.623-13.622z" fill="url(#c)"/><defs><linearGradient id="b" x1="283.803" y1="547.112" x2="283.803" y2="528.967" gradientUnits="userSpaceOnUse"><stop stop-color="#FFD869"/><stop offset="1" stop-color="#FEC52B"/></linearGradient><linearGradient id="c" x1="72.653" y1="148.985" x2="72.653" y2="107.509" gradientUnits="userSpaceOnUse"><stop stop-color="#FED100"/><stop offset="1" stop-color="#E38101"/></linearGradient><filter id="a" x="23" y="86" width="172" height="90" filterUnits="userSpaceOnUse" color-interpolation-filters="sRGB"><feFlood flood-opacity="0" result="BackgroundImageFix"/><feBlend in="SourceGraphic" in2="BackgroundImageFix" result="shape"/><feColorMatrix in="SourceAlpha" values="0 0 0 0 0 0 0 0 0 0 0 0 0 0 0 0 0 0 127 0" result="hardAlpha"/><feOffset dy="4"/><feGaussianBlur stdDeviation="12"/><feComposite in2="hardAlpha" operator="arithmetic" k2="-1" k3="1"/><feColorMatrix values="0 0 0 0 0 0 0 0 0 0 0 0 0 0 0 0 0 0 0.05 0"/><feBlend in2="shape" result="effect1_innerShadow_2_125"/></filter></defs></svg>