<svg width="218" height="218" fill="none" xmlns="http://www.w3.org/2000/svg"><path d="M67.545 101.411H15.893V52.628a2.878 2.878 0 0 1 2.869-2.869h45.914a2.878 2.878 0 0 1 2.869 2.869v48.783z" fill="#FDB52A"/><path opacity=".6" d="M29 58.255a3.5 3.5 0 0 1 3.5-3.5h18a3.5 3.5 0 1 1 0 7h-18a3.5 3.5 0 0 1-3.5-3.5z" fill="#fff"/><path d="M174.823 157.036c0 13.164-10.677 23.84-23.84 23.84s-23.839-10.676-23.839-23.84c0-13.163 10.676-23.839 23.839-23.839 13.163 0 23.84 10.676 23.84 23.839z" fill="#3F3F3F"/><path d="M162.903 157.036c0 6.584-5.332 11.92-11.92 11.92s-11.92-5.332-11.92-11.92c0-6.587 5.332-11.919 11.92-11.919s11.92 5.332 11.92 11.919z" fill="#929292"/><path d="M152.978 121.277c-16.461 0-29.808 14.232-29.808 31.786h55.526c2.293 0 4.109-2.169 3.783-4.593-2.086-15.376-14.498-27.193-29.501-27.193z" fill="#D42E0C"/><path d="M71.518 157.036c0 13.164-10.676 23.84-23.84 23.84-13.162 0-23.838-10.676-23.838-23.84 0-13.163 10.676-23.839 23.839-23.839 13.163 0 23.84 10.676 23.84 23.839z" fill="#3F3F3F"/><path d="M59.599 157.036c0 6.584-5.332 11.92-11.92 11.92s-11.92-5.332-11.92-11.92c0-6.587 5.332-11.919 11.92-11.919 6.587 0 11.92 5.332 11.92 11.919z" fill="#929292"/><path d="M133.103 61.679h12.969a4.909 4.909 0 0 0 4.911-4.911v-17.99a4.909 4.909 0 0 0-4.911-4.912h-12.969c-7.68 0-13.906 6.226-13.906 13.907 0 7.68 6.226 13.906 13.906 13.906z" fill="#D42E0C"/><path d="M135.09 61.679h-23.839v7.946h14.51l-12.15 69.874a1.988 1.988 0 0 1-1.959 1.644h-23.49a1.987 1.987 0 0 1-1.855-1.275l-13.811-35.91a3.97 3.97 0 0 0-3.707-2.547h-33.03c-14.216 7.108-25.25 23.752-27.423 44.242-.421 3.977 2.82 7.41 6.822 7.41h111.986l31.785-31.786c-1.454-19.556-11.919-47.679-23.839-59.598z" fill="#FF5634"/><path d="M99.331 69.625h11.92V61.68h-11.92a3.975 3.975 0 0 0-3.973 3.973 3.975 3.975 0 0 0 3.973 3.973zM13.906 109.358h60.676l-2.082-5.404a3.973 3.973 0 0 0-3.707-2.543H13.906c-1.096 0-1.986.89-1.986 1.987v3.973c0 1.097.89 1.987 1.986 1.987z" fill="#D42E0C"/><path d="M192.5 47.755a24.5 24.5 0 1 0 0 49 24.5 24.5 0 0 0 0-49z" fill="#4CAF50"/><path d="M206.5 62.923a2.335 2.335 0 0 0-3.302.002l-14.182 14.199-4.883-4.872a2.333 2.333 0 1 0-3.296 3.304l6.062 6.048a3 3 0 0 0 4.241-.003l15.361-15.377a2.334 2.334 0 0 0-.001-3.301z" fill="#fff"/></svg>