<?xml version="1.0" standalone="no"?>
<!DOCTYPE svg PUBLIC "-//W3C//DTD SVG 20010904//EN"
 "http://www.w3.org/TR/2001/REC-SVG-20010904/DTD/svg10.dtd">
<svg version="1.0" xmlns="http://www.w3.org/2000/svg"
 width="840.000000pt" height="840.000000pt" viewBox="0 0 840.000000 840.000000"
 preserveAspectRatio="xMidYMid meet">
<metadata>
Created by potrace 1.14, written by Peter Selinger 2001-2017
</metadata>
<g transform="translate(0.000000,840.000000) scale(0.100000,-0.100000)"
fill="#000000" stroke="none">
<path d="M593 7771 c-78 -56 -73 11 -73 -1013 1 -736 3 -920 14 -951 21 -57
62 -104 119 -137 l52 -30 -208 0 c-187 0 -212 -2 -247 -20 -48 -25 -78 -66
-89 -123 -4 -24 -6 -444 -3 -933 4 -862 5 -890 24 -936 23 -53 78 -109 135
-135 31 -14 77 -18 266 -21 l228 -4 -32 -21 c-59 -40 -74 -71 -74 -151 0 -65
3 -77 29 -110 60 -79 22 -76 828 -76 l717 0 -59 -117 c-89 -179 -167 -386
-207 -549 -17 -69 -21 -75 -90 -136 -141 -127 -263 -276 -352 -432 -28 -50
-54 -105 -57 -124 -17 -88 25 -174 110 -227 l49 -30 234 -3 233 -3 0 -50 c0
-115 55 -294 127 -412 115 -189 284 -322 503 -394 l105 -34 185 3 c177 3 189
5 272 34 211 76 392 226 500 414 59 104 118 303 118 402 l0 38 953 2 952 3 63
34 c71 39 144 113 184 187 14 27 38 93 52 147 47 178 116 317 225 451 80 99
239 235 259 222 4 -2 43 -77 87 -165 l79 -161 -74 -74 c-134 -136 -214 -282
-251 -461 -95 -459 184 -919 637 -1050 76 -22 105 -25 249 -25 145 0 172 3
251 26 297 86 519 306 620 614 26 79 28 96 28 255 0 159 -2 176 -28 255 -111
338 -368 570 -706 635 -97 19 -240 19 -331 0 -40 -9 -73 -14 -74 -13 -8 9
-166 331 -163 333 15 14 178 52 374 87 121 21 202 122 211 265 4 61 0 83 -46
221 -238 714 -665 1403 -1282 2064 l-110 117 123 -1 c104 -1 132 3 180 21 80
31 159 105 200 188 28 57 32 75 32 147 -1 149 -72 264 -202 328 l-67 33 -160
-1 c-205 0 -404 -32 -641 -102 -101 -30 -174 -112 -190 -211 l-7 -41 -471 0
c-528 0 -510 2 -570 -73 -28 -35 -31 -46 -31 -106 0 -85 27 -130 99 -166 l50
-25 596 0 596 0 42 -117 c205 -578 293 -1333 227 -1943 -42 -397 -138 -705
-290 -940 -64 -99 -202 -236 -290 -288 -151 -89 -313 -128 -505 -119 -186 8
-303 58 -425 181 -203 205 -274 563 -182 921 12 49 29 91 37 95 8 4 61 15 117
24 131 21 328 78 412 119 87 43 104 68 103 149 -4 214 -167 418 -377 473 -51
13 -168 15 -820 15 -476 0 -776 -4 -804 -11 -202 -46 -351 -241 -351 -458 0
-26 -5 -52 -12 -59 -8 -8 -47 -12 -112 -12 -94 1 -99 2 -70 14 48 21 110 81
132 129 19 41 20 71 23 967 4 1042 10 960 -73 1020 l-41 30 139 0 c124 0 144
3 189 24 55 25 107 78 129 129 10 26 14 208 18 936 3 498 2 920 -3 939 -10 44
-36 80 -79 110 l-33 22 -1057 0 -1057 0 -40 -29z m6865 -5935 c104 -28 188
-100 234 -202 34 -75 32 -209 -4 -286 -34 -73 -98 -137 -174 -174 -52 -25 -70
-28 -149 -28 -77 0 -98 3 -145 27 -171 82 -250 277 -183 450 9 23 20 46 24 51
4 5 41 -58 82 -140 95 -188 131 -224 227 -224 33 0 46 7 89 50 93 92 93 157
-4 350 -36 71 -65 132 -65 135 0 7 10 6 68 -9z m-4058 -351 c0 -2 -5 -28 -11
-57 -48 -226 -287 -349 -495 -254 -104 48 -185 155 -200 264 l-7 52 357 0
c196 0 356 -2 356 -5z"/>
</g>
</svg>
