<svg width="218" height="218" fill="none" xmlns="http://www.w3.org/2000/svg"><path fill-rule="evenodd" clip-rule="evenodd" d="M79.499 7.139c-4.05.166-6.929 1.041-9.37 2.848-2.902 2.147-4.693 5.34-5.243 9.35-.23 1.668-.227 1.572-.248 13.196l-.02 11.176h-.203c-.148 0-.218.027-.257.1-.036.067-.054 1.19-.054 3.286 0 3.551-.013 3.416.34 3.416h.18v3.09c0 3.035-.003 3.089-.103 3.089-.24 0-.235-.15-.235 6.646 0 3.527.019 6.5.041 6.61.029.134.082.214.17.254l.126.058v1.783c0 1.538-.01 1.783-.077 1.783-.042 0-.118.063-.168.14-.087.133-.092.504-.092 6.608 0 6.835-.004 6.726.233 6.788.102.027.102.29.12 43.052.013 33.216.031 43.178.08 43.699.11 1.185.215 1.953.37 2.726.86 4.267 3.27 7.528 6.944 9.388 2 1.012 4.108 1.508 7.102 1.67 1.272.069 57.996.07 59.373.001 4.165-.209 6.829-1.065 9.422-3.028.58-.439 1.798-1.672 2.267-2.294 1.616-2.146 2.446-4.411 2.833-7.736.086-.734.093-3.398.119-46.407l.027-45.628.126-.063a.436.436 0 0 0 .18-.22c.07-.203.107-19.541.039-20.458-.048-.66-.097-.803-.272-.803-.094 0-.097-.566-.113-20.003-.019-21.782-.001-20.47-.296-22.288-.529-3.265-1.834-5.906-3.892-7.881-2.144-2.057-4.735-3.264-8-3.725-1.697-.24.148-.227-31.516-.233-16.263-.003-29.733.001-29.933.01z" fill="#656565"/><mask id="a" style="mask-type:alpha" maskUnits="userSpaceOnUse" x="68" y="11" width="81" height="173"><path fill-rule="evenodd" clip-rule="evenodd" d="M126.54 11.307c-.304.04-.517.144-.712.35-.235.248-.302.535-.354 1.523-.027.5-.073 1.038-.102 1.194-.191 1.018-.657 1.87-1.393 2.55-.598.55-1.37.945-2.19 1.12-.419.089-1.071.094-12.928.094-12 0-12.504-.004-12.903-.097-.925-.216-1.573-.553-2.193-1.142-.819-.778-1.26-1.634-1.409-2.733a17.103 17.103 0 0 1-.087-1.142c-.048-1.053-.186-1.38-.689-1.633-.158-.08-.662-.085-6.464-.067-6.654.02-6.8.025-8.26.276-3.635.624-6.226 2.765-7.297 6.03-.416 1.266-.594 2.506-.68 4.734-.084 2.156-.04 150.555.045 151.514.148 1.674.313 2.612.642 3.634.725 2.256 2.16 3.985 4.199 5.054 1.265.664 2.598 1.01 4.773 1.239.804.084 57.529.127 59.451.045 2.093-.09 3.353-.277 4.577-.679 3.193-1.048 5.257-3.423 5.982-6.879.188-.899.285-1.84.347-3.375.084-2.058.039-150.692-.046-151.638-.205-2.302-.489-3.5-1.149-4.855-.459-.942-.87-1.516-1.637-2.287-1.134-1.139-2.426-1.866-4.098-2.307-1.215-.321-2.389-.453-4.625-.52-1.786-.055-10.391-.057-10.8-.003z" fill="#fff"/></mask><g mask="url(#a)"><path fill-rule="evenodd" clip-rule="evenodd" d="M68.517 10.947h80.739v173.159H68.517V10.946z" fill="#fff"/><g filter="url(#b)"><mask id="c" style="mask-type:alpha" maskUnits="userSpaceOnUse" x="84" y="31" width="50" height="50"><path d="M109.334 80.222c13.567 0 24.565-10.999 24.565-24.566 0-13.566-10.998-24.565-24.565-24.565-13.567 0-24.565 10.998-24.565 24.565 0 13.567 10.998 24.566 24.565 24.566z" fill="#FAC801"/></mask><g mask="url(#c)"><path d="M109.334 80.222c13.567 0 24.565-10.999 24.565-24.566 0-13.566-10.998-24.565-24.565-24.565-13.567 0-24.565 10.998-24.565 24.565 0 13.567 10.998 24.566 24.565 24.566z" fill="#FDB52A"/><g opacity=".9" fill="#fff"><path opacity=".9" d="M109.292 59.75c5.523 0 10-4.477 10-10s-4.477-10-10-10-10 4.477-10 10 4.477 10 10 10zM109.292 81c6.269 0 11.984-2.324 16.373-6.136-2.489-6.634-8.87-11.364-16.373-11.364-7.502 0-13.884 4.73-16.372 11.364C97.308 78.675 103.023 81 109.292 81z"/></g></g></g><path d="M136.542 102.21H81.766a3.752 3.752 0 0 0 0 7.504h54.776a3.752 3.752 0 0 0 0-7.504z" fill="#3F3F3F"/><path d="M135.417 117.968H82.891a4.878 4.878 0 0 0 0 9.755h52.526a4.877 4.877 0 0 0 0-9.755z" fill="#EDEDED"/><path d="M134.666 150.984H83.642a5.627 5.627 0 1 0 0 11.255h51.024a5.627 5.627 0 1 0 0-11.255z" fill="#FF5634"/><path d="M101.275 133.725H82.516a4.502 4.502 0 0 0 0 9.004h18.759a4.502 4.502 0 1 0 0-9.004zM135.792 133.725h-18.759a4.502 4.502 0 0 0 0 9.004h18.759a4.501 4.501 0 1 0 0-9.004z" fill="#EDEDED"/><path d="M108.769 211c11.598 0 21-9.402 21-21s-9.402-21-21-21-21 9.402-21 21 9.402 21 21 21z" fill="#4CAF50"/><path d="M109.819 200.5h-2.1c-.58 0-1.05-.47-1.05-1.05v-18.9c0-.58.47-1.05 1.05-1.05h2.1c.58 0 1.05.47 1.05 1.05v18.9c0 .58-.47 1.05-1.05 1.05z" fill="#fff"/></g><defs><filter id="b" x="84.769" y="31.091" width="49.13" height="53.13" filterUnits="userSpaceOnUse" color-interpolation-filters="sRGB"><feFlood flood-opacity="0" result="BackgroundImageFix"/><feBlend in="SourceGraphic" in2="BackgroundImageFix" result="shape"/><feColorMatrix in="SourceAlpha" values="0 0 0 0 0 0 0 0 0 0 0 0 0 0 0 0 0 0 127 0" result="hardAlpha"/><feOffset dy="4"/><feGaussianBlur stdDeviation="2"/><feComposite in2="hardAlpha" operator="arithmetic" k2="-1" k3="1"/><feColorMatrix values="0 0 0 0 0 0 0 0 0 0 0 0 0 0 0 0 0 0 0.01 0"/><feBlend in2="shape" result="effect1_innerShadow_2_99"/></filter></defs></svg>